<?xml version="1.0" encoding="UTF-8"?>
<svg width="20px" height="36px" viewBox="0 0 20 36" version="1.1" xmlns="http://www.w3.org/2000/svg" xmlns:xlink="http://www.w3.org/1999/xlink">
    <!-- Generator: Sketch 50.2 (55047) - http://www.bohemiancoding.com/sketch -->
    <title>thunderbolt</title>
    <desc>Created with Sketch.</desc>
    <defs></defs>
    <g id="Page-1" stroke="none" stroke-width="1" fill="none" fill-rule="evenodd">
        <g id="thunderbolt" fill-rule="nonzero">
            <path d="M19.2030378,12.6600655 C19.0162119,12.3214114 18.6572731,12.1104737 18.2672429,12.1104737 L14.3994203,12.1104737 L16.1585814,1.22108607 C16.235477,0.744828104 15.9759196,0.277633923 15.5284258,0.0864715697 C15.0812097,-0.104690783 14.5590412,0.0287932384 14.2614523,0.410843304 L0.221475506,18.4388815 C-0.0264227458,18.7572107 -0.0697285902,19.187326 0.109324402,19.5482273 C0.28865505,19.908854 0.659808326,20.13737 1.06593943,20.13737 L7.16456822,20.13737 L3.07355396,34.6621382 C2.93197713,35.1644887 3.18292894,35.6940304 3.66373493,35.9074401 C3.80503411,35.9700622 3.95327331,36 4.09984693,36 C4.45295613,36 4.79496126,35.8258665 4.99677761,35.5160517 L19.1638959,13.735903 C19.3748731,13.4115313 19.3898636,12.9987195 19.2030378,12.6600655 Z" id="Shape" fill="#C67B00"></path>
            <path d="M18.540865,12.8075864 C18.3604829,12.4649862 18.0139239,12.2515905 17.637346,12.2515905 L13.9029257,12.2515905 L15.6014129,1.23531473 C15.6756563,0.753507184 15.4250511,0.280869041 14.9929915,0.0874791762 C14.5612001,-0.105910688 14.0570413,0.0291287504 13.7697163,0.415630639 L9.33333333,6.38459766 L9.33333333,28.6666667 L18.5030732,13.8959601 C18.7067737,13.5678086 18.7212472,13.1501865 18.540865,12.8075864 Z" id="Shape" fill="#FE9405"></path>
        </g>
    </g>
</svg>