<?xml version="1.0" encoding="UTF-8"?>
<svg width="20px" height="38px" viewBox="0 0 20 38" version="1.1" xmlns="http://www.w3.org/2000/svg" xmlns:xlink="http://www.w3.org/1999/xlink">
    <!-- Generator: Sketch 50.2 (55047) - http://www.bohemiancoding.com/sketch -->
    <title>Group</title>
    <desc>Created with Sketch.</desc>
    <defs></defs>
    <g id="Page-1" stroke="none" stroke-width="1" fill="none" fill-rule="evenodd">
        <g id="Group" transform="translate(0.000000, 1.000000)" fill="#BED4EF" fill-rule="nonzero">
            <g id="thunderbolt-copy">
                <path d="M15.1769021,12.6600952 C15.0292468,12.3214416 14.7455643,12.1105041 14.4373092,12.1105041 L11.3804277,12.1105041 L12.770757,1.22113041 C12.8315304,0.744873047 12.6263927,0.277679461 12.272722,0.0865173516 C11.9192708,-0.104644758 11.506582,0.0288390937 11.2713866,0.410888672 L0.175080156,18.4389038 C-0.0208428864,18.7572326 -0.0550690769,19.1873474 0.0864430427,19.5482483 C0.228174603,19.9088745 0.521510593,20.1373902 0.842490842,20.1373902 L5.66245992,20.1373902 L2.42918193,34.6621399 C2.31728859,35.1644898 2.51562497,35.6940308 2.8956235,35.9074402 C3.0072974,35.9700623 3.12445626,36 3.24029875,36 C3.51937384,36 3.78967299,35.8258667 3.94917582,35.5160523 L15.1459669,13.7359314 C15.3127098,13.4115601 15.3245574,12.9987488 15.1769021,12.6600952 Z" id="Shape"></path>
                <path d="M15.1769021,12.6600952 C15.0292468,12.3214416 14.7455643,12.1105041 14.4373092,12.1105041 L11.3804277,12.1105041 L12.770757,1.22113041 C12.8315304,0.744873047 12.6263927,0.277679461 12.272722,0.0865173516 C11.9192708,-0.104644758 11.506582,0.0288390938 11.2713866,0.410888672 L7.63990006,6.31109616 L7.63990006,28.3364868 L15.1459669,13.7359314 C15.3127098,13.4115601 15.3245574,12.9987488 15.1769021,12.6600952 Z" id="Shape"></path>
            </g>
            <g id="thunderbolt-copy-2" transform="translate(4.000000, 0.000000)">
                <path d="M15.1769021,12.6600952 C15.0292468,12.3214416 14.7455643,12.1105041 14.4373092,12.1105041 L11.3804277,12.1105041 L12.770757,1.22113041 C12.8315304,0.744873047 12.6263927,0.277679461 12.272722,0.0865173516 C11.9192708,-0.104644758 11.506582,0.0288390937 11.2713866,0.410888672 L0.175080156,18.4389038 C-0.0208428864,18.7572326 -0.0550690769,19.1873474 0.0864430427,19.5482483 C0.228174603,19.9088745 0.521510593,20.1373902 0.842490842,20.1373902 L5.66245992,20.1373902 L2.42918193,34.6621399 C2.31728859,35.1644898 2.51562497,35.6940308 2.8956235,35.9074402 C3.0072974,35.9700623 3.12445626,36 3.24029875,36 C3.51937384,36 3.78967299,35.8258667 3.94917582,35.5160523 L15.1459669,13.7359314 C15.3127098,13.4115601 15.3245574,12.9987488 15.1769021,12.6600952 Z" id="Shape" stroke="#FFFFFF"></path>
                <path d="M15.1769021,12.6600952 C15.0292468,12.3214416 14.7455643,12.1105041 14.4373092,12.1105041 L11.3804277,12.1105041 L12.770757,1.22113041 C12.8315304,0.744873047 12.6263927,0.277679461 12.272722,0.0865173516 C11.9192708,-0.104644758 11.506582,0.0288390938 11.2713866,0.410888672 L7.63990006,6.31109616 L7.63990006,28.3364868 L15.1459669,13.7359314 C15.3127098,13.4115601 15.3245574,12.9987488 15.1769021,12.6600952 Z" id="Shape"></path>
            </g>
        </g>
    </g>
</svg>