<?xml version="1.0" encoding="UTF-8"?>
<svg width="35px" height="36px" viewBox="0 0 35 36" version="1.1" xmlns="http://www.w3.org/2000/svg" xmlns:xlink="http://www.w3.org/1999/xlink">
    <!-- Generator: Sketch 50.2 (55047) - http://www.bohemiancoding.com/sketch -->
    <title>solar</title>
    <desc>Created with Sketch.</desc>
    <defs></defs>
    <g id="Page-1" stroke="none" stroke-width="1" fill="none" fill-rule="evenodd">
        <g id="solar" transform="translate(0.842105, 0.000000)" fill-rule="nonzero">
            <g id="Group" fill="#7ED321">
                <rect id="Rectangle-path" x="15.9405034" y="0" width="2.22425629" height="9.01546876"></rect>
                <rect id="Rectangle-path" transform="translate(10.577973, 7.362974) rotate(59.999272) translate(-10.577973, -7.362974) " x="7.10086997" y="6.30837981" width="6.95420672" height="2.10918797"></rect>
                <rect id="Rectangle-path" x="0.624645309" y="16.9453125" width="6.95450798" height="2.109375"></rect>
                <rect id="Rectangle-path" transform="translate(10.576823, 28.635763) rotate(30.000728) translate(-10.576823, -28.635763) " x="9.46479329" y="25.3382496" width="2.22405908" height="6.59502676"></rect>
                <rect id="Rectangle-path" transform="translate(23.528884, 28.635762) rotate(59.999272) translate(-23.528884, -28.635762) " x="20.0517802" y="27.5811677" width="6.95420672" height="2.10918797"></rect>
                <rect id="Rectangle-path" transform="translate(23.527722, 7.362943) rotate(30.000728) translate(-23.527722, -7.362943) " x="22.415692" y="4.06542996" width="2.22405908" height="6.59502676"></rect>
                <rect id="Rectangle-path" transform="translate(4.731052, 11.253306) rotate(30.000728) translate(-4.731052, -11.253306) " x="-0.0219680695" y="10.1987119" width="9.50603981" height="2.10918797"></rect>
                <rect id="Rectangle-path" x="26.5264806" y="16.9453125" width="6.95450798" height="2.109375"></rect>
                <rect id="Rectangle-path" transform="translate(29.374127, 11.253053) rotate(59.999272) translate(-29.374127, -11.253053) " x="28.2620971" y="6.74552353" width="2.22405908" height="9.01505949"></rect>
                <rect id="Rectangle-path" transform="translate(4.732540, 24.745929) rotate(59.999272) translate(-4.732540, -24.745929) " x="3.62051035" y="20.2383994" width="2.22405908" height="9.01505949"></rect>
                <rect id="Rectangle-path" x="15.9405034" y="26.9845312" width="2.22425629" height="9.01546876"></rect>
                <rect id="Rectangle-path" transform="translate(29.372882, 24.745279) rotate(30.000728) translate(-29.372882, -24.745279) " x="24.6198625" y="23.6906847" width="9.50603981" height="2.10918797"></rect>
            </g>
            <path d="M17.0526316,27.2053125 C11.7003295,27.2053125 7.34597709,23.0758593 7.34597709,18 C7.34597709,12.9241407 11.7003295,8.79468752 17.0526316,8.79468752 C22.4049337,8.79468752 26.7593602,12.9241407 26.7593602,18 C26.7593602,23.0758593 22.4049337,27.2053125 17.0526316,27.2053125 Z" id="Shape" fill="#7ED320"></path>
            <path d="M17.0526316,27.2053125 C17.0526316,20.6276485 17.0526316,12.7996875 17.0526316,8.79461716 C22.4049337,8.79461716 26.7593602,12.9240703 26.7593602,17.9999297 C26.7593602,23.0757891 22.4049337,27.2053125 17.0526316,27.2053125 Z" id="Shape" fill="#B5F735"></path>
            <polygon id="Shape" fill="#FFFFFF" points="21.2249657 16.9081875 17.4180769 16.9081875 17.9862261 11.2538672 12.8802975 19.1901797 16.6539707 19.1901797 15.9889922 24.7461328"></polygon>
        </g>
    </g>
</svg>